<svg id="Layer_1" data-name="Layer 1" xmlns="http://www.w3.org/2000/svg" viewBox="0 0 490 160"><defs><style>.cls-1{fill:#ff5200;opacity:0.2;}.cls-2{fill:#ff6900;}.cls-3{fill:#6c635e;}</style></defs><title>Artboard 1</title><path class="cls-1" d="M197.64,155V125.72A41.7,41.7,0,0,1,160,84.27V46.64A41.68,41.68,0,0,1,201.64,5H304.36a41.71,41.71,0,0,1,39.28,27.78,4,4,0,0,1-7.54,2.66A33.69,33.69,0,0,0,304.36,13H201.64A33.67,33.67,0,0,0,168,46.64V84.27a33.68,33.68,0,0,0,33.64,33.64h4V139.2c3.4-2.38,7.86-5.42,12.68-8.47,3.67-2.32,7.1-4.36,10.19-6.05a4,4,0,0,1,3.85,7c-2.95,1.62-6.23,3.57-9.76,5.8-9.87,6.24-18.48,12.65-18.56,12.71Z"/><path class="cls-2" d="M212.27,71.56a11.41,11.41,0,0,1-1.71-.17l-2.2-.33-2.2-.33a11.07,11.07,0,0,0-1.48-.17,10.86,10.86,0,0,0-3.19.44,75.8,75.8,0,0,0-2,10.72,149.63,149.63,0,0,0-1,15,11.11,11.11,0,0,1-2.86.55,9.87,9.87,0,0,1-2-.22,4.51,4.51,0,0,1-1.93-.94,5.73,5.73,0,0,1-1.48-1.92,7.17,7.17,0,0,1-.6-3.19,19.72,19.72,0,0,1,.17-2.25,19,19,0,0,0,.17-1.93q0-1.21.33-4.23l.77-7.1q.44-4.07,1-8.85t1-9.52q.44-4.73.77-8.91t.33-7V39.88a1.38,1.38,0,0,1,1.21-1.54,11.17,11.17,0,0,1,1.76-.22l3.3.88A3.18,3.18,0,0,1,202,40.15a6.21,6.21,0,0,1,.94,2,12.91,12.91,0,0,1,.44,2.48q.11,1.32.11,2.53a23.46,23.46,0,0,1-.22,2.64q-.22,1.76-.44,3.8t-.44,4.07a32.72,32.72,0,0,0-.22,3.46,2.28,2.28,0,0,0,1.54,2.48,15.6,15.6,0,0,0,4.51.5h1.32a22.35,22.35,0,0,0,2.42-.11c.66-.07,1.14-.11,1.43-.11h.44q1.43-5.94,2.58-13.25t2.25-16.67q.55-3.74,2.31-3.85h1a8.67,8.67,0,0,1,3.46.6,2.78,2.78,0,0,1,1.71,1.81q-.11,2.64-.6,7.32t-1.16,10.45q-.66,5.78-1.37,12.16t-1.37,12.38q-.66,6-1,11.17t-.38,8.47q0,1.76.05,3.36t.17,3.13a2.58,2.58,0,0,1-.5,1.49,1.49,1.49,0,0,1-1.26.71q-4.4,0-6.1-2.48t-1.71-7.2c0-.44,0-1,.05-1.76s.07-1.52.11-2.36.07-1.63.11-2.37.06-1.32.06-1.76.05-1.5.17-2.75.24-2.57.38-4,.27-2.73.39-4,.16-2.25.16-2.92Z"/><path class="cls-2" d="M233.72,75.74a33.22,33.22,0,0,1,1-8.2,25.4,25.4,0,0,1,3.13-7.42,17.52,17.52,0,0,1,5.17-5.33,12.67,12.67,0,0,1,7.15-2,13.13,13.13,0,0,1,5,.88,10.8,10.8,0,0,1,3.58,2.31,9.51,9.51,0,0,1,2.15,3.25,10.28,10.28,0,0,1,.71,3.79A13.31,13.31,0,0,1,258,72.11a13.36,13.36,0,0,1-4.34,3,15.57,15.57,0,0,1-5.89,1.27,9.24,9.24,0,0,1-2.53-.11,25.84,25.84,0,0,1-2.53-.66,4.88,4.88,0,0,0-.11.94v.6A14.75,14.75,0,0,0,244,83.55,10.86,10.86,0,0,0,246.59,87a7.3,7.3,0,0,0,2.75,1.48,9.21,9.21,0,0,0,1.76.33,9.82,9.82,0,0,0,5.67-1.54l5-3.41,1.21.5a2.92,2.92,0,0,1,1.21,1,9.4,9.4,0,0,0,.22,1,4.58,4.58,0,0,1,.11,1.16,5.14,5.14,0,0,1-.82,2.58A9.61,9.61,0,0,1,262.1,92a15,15,0,0,1-5.33,3.13,23.8,23.8,0,0,1-6.44.72A15.77,15.77,0,0,1,246,95.1a27.22,27.22,0,0,1-4.34-1.65,20.42,20.42,0,0,1-4.12-4,16.74,16.74,0,0,1-2.31-4.18,19.23,19.23,0,0,1-1.1-4.57Q233.83,78.38,233.72,75.74Zm9.57-5.94a8,8,0,0,0,1.38.17c.62,0,1.12.06,1.49.06a8.22,8.22,0,0,0,5.77-1.87,5.91,5.91,0,0,0,2-4.51,5.06,5.06,0,0,0-.88-2.86,2.76,2.76,0,0,0-2.42-1.32,10.38,10.38,0,0,0-2.14.22,2.38,2.38,0,0,0-1.6,1.1,13.28,13.28,0,0,1-1,1.1,5.92,5.92,0,0,0-1,1.54A15.29,15.29,0,0,0,244,65.9,20.73,20.73,0,0,0,243.29,69.8Z"/><path class="cls-2" d="M283.22,92.79a1,1,0,0,0,.11.44,1,1,0,0,1,.11.44A2.75,2.75,0,0,1,282,96.25a6.17,6.17,0,0,1-3,.83q-2.75,0-4.4-3A26.45,26.45,0,0,1,272,87a54.77,54.77,0,0,1-1.16-8q-.28-4-.27-5.94,0-5.39-.06-9.62t-.05-8.85a113.2,113.2,0,0,1,.6-11.83,115.91,115.91,0,0,0,.61-12,3.76,3.76,0,0,1,.66-2.31,10,10,0,0,1,1.76-1.76q.88,0,2.14.11a8.33,8.33,0,0,1,2.37.55,5.53,5.53,0,0,1,1.87,1.21,3,3,0,0,1,.77,2.2,31.11,31.11,0,0,1-.55,5.77,31.06,31.06,0,0,0-.55,5.77q0,4.18-.05,7.54T280,56.49q0,2.86.11,5.44t.11,5.23q0,1.87.05,3.57t.05,3.25a55.28,55.28,0,0,0,.94,9.57Q282.23,88.83,283.22,92.79Z"/><path class="cls-2" d="M303.13,111a41.61,41.61,0,0,0,.38,5.89,35.64,35.64,0,0,1,.38,5,13.25,13.25,0,0,1-.28,2.42,10.6,10.6,0,0,1-.93,2.75,6.52,6.52,0,0,1-1.76,2.2,4.44,4.44,0,0,1-2.86.88,5,5,0,0,1-3.24-1.37,4.07,4.07,0,0,1-1.6-3.14q0-.55.05-1.26t.17-1.49q-.11-1.87-.11-3.74v-3.74q0-5.72.11-11.5t.11-12q0-4.62-.11-9.29t-.11-10.29q0-4.62-.39-9t-.38-9a4.56,4.56,0,0,1,.83-3q.82-1,3.68-1,3.08,0,4.13,1.43a12.09,12.09,0,0,1,1.71,3.52l2.15-.77a6.76,6.76,0,0,1,2.15-.44H308a15.62,15.62,0,0,1,4.51.49A16.3,16.3,0,0,1,315.56,56l.33.22a.23.23,0,0,1,.17.06.22.22,0,0,0,.17.05,14.46,14.46,0,0,1,3.9,3.08,22.24,22.24,0,0,1,3.14,4.4,25.43,25.43,0,0,1,2.09,5.06,18.09,18.09,0,0,1,.77,5.06,18.43,18.43,0,0,1-1.27,6.38,19.62,19.62,0,0,1-10.23,11,21,21,0,0,1-9.18,1.87h-1a2.9,2.9,0,0,1-1.1-.22,2.89,2.89,0,0,0-.22,1.27V111Zm9.35-28.27a12.61,12.61,0,0,0,3.63-9.13,13.12,13.12,0,0,0-2.37-7.48A10.93,10.93,0,0,0,311,63.42,8.84,8.84,0,0,0,307.31,62l-1.43.55a7.5,7.5,0,0,0-1.6.83,9.18,9.18,0,0,0-1.15.82.85.85,0,0,0-.17.22.6.6,0,0,1-.28.22,4.87,4.87,0,0,0-.22,2.09q0,2.09.17,4.9t.17,3.9v3.74a39.89,39.89,0,0,0,.22,4.4q.22,2,1.1,2a15.43,15.43,0,0,0,3-.28,12.75,12.75,0,0,0,3.14-1.16Z"/><path class="cls-3" d="M71.15,55.9H57.4v7.05H70.8a3.13,3.13,0,0,1,0,6.25H57.4V79.8a3.55,3.55,0,0,1-7.1,0V53.65a4,4,0,0,1,4-4H71.15a3.13,3.13,0,0,1,0,6.25Z"/><path class="cls-3" d="M90,64.5a7.27,7.27,0,0,0-5,2.55v13.1A3.13,3.13,0,0,1,82,83.3h-.1a3.14,3.14,0,0,1-3.15-3.15V61.65A3.15,3.15,0,0,1,82,58.55a3.12,3.12,0,0,1,3.1,3.1v.5c1.2-1.6,2.8-3.5,5.2-3.5a2.53,2.53,0,0,1,2.8,2.6A3.2,3.2,0,0,1,90,64.5Z"/><path class="cls-3" d="M116.7,72.95H101.8c.4,3.05,2.85,5.6,7,5.6a10.74,10.74,0,0,0,4.7-1.2,2.86,2.86,0,0,1,1.25-.3,2.66,2.66,0,0,1,2.7,2.55c0,2.85-6.15,4-9.35,4-7.35,0-12.9-5-12.9-12.7a12.29,12.29,0,0,1,12.5-12.65A11.53,11.53,0,0,1,119,66.4a12.76,12.76,0,0,1,.7,3.65A3,3,0,0,1,116.7,72.95Zm-9.05-9.65a5.8,5.8,0,0,0-6,5.35h11.9A5.59,5.59,0,0,0,107.65,63.3Z"/><path class="cls-3" d="M144.35,72.95h-14.9c.4,3.05,2.85,5.6,7,5.6a10.74,10.74,0,0,0,4.7-1.2,2.86,2.86,0,0,1,1.25-.3,2.66,2.66,0,0,1,2.7,2.55c0,2.85-6.15,4-9.35,4-7.35,0-12.9-5-12.9-12.7a12.29,12.29,0,0,1,12.5-12.65,11.53,11.53,0,0,1,11.3,8.15,12.76,12.76,0,0,1,.7,3.65A3,3,0,0,1,144.35,72.95ZM135.3,63.3a5.8,5.8,0,0,0-6,5.35h11.9A5.59,5.59,0,0,0,135.3,63.3Z"/><path class="cls-3" d="M369.15,58.9H355.4v7.05h13.4a3.13,3.13,0,0,1,0,6.25H355.4V82.8a3.55,3.55,0,0,1-7.1,0V56.65a4,4,0,0,1,4-4h16.85a3.13,3.13,0,0,1,0,6.25Z"/><path class="cls-3" d="M388,67.5A7.27,7.27,0,0,0,383.05,70v13.1A3.13,3.13,0,0,1,380,86.3h-.1a3.14,3.14,0,0,1-3.15-3.15V64.65a3.15,3.15,0,0,1,3.25-3.1,3.12,3.12,0,0,1,3.1,3.1v.5c1.2-1.6,2.8-3.5,5.2-3.5a2.53,2.53,0,0,1,2.8,2.6A3.2,3.2,0,0,1,388,67.5Z"/><path class="cls-3" d="M401.65,55.45a3.8,3.8,0,1,1-3.8-3.75A3.76,3.76,0,0,1,401.65,55.45Zm-3.8,30.85a3.14,3.14,0,0,1-3.15-3.15V64.65a3.15,3.15,0,0,1,3.25-3.1,3.11,3.11,0,0,1,3.1,3.1v18.5A3.15,3.15,0,0,1,397.85,86.3Z"/><path class="cls-3" d="M427.1,86.3a3.14,3.14,0,0,1-3.15-3.15V82.9a9.37,9.37,0,0,1-7.45,3.7c-6.1,0-10.7-4.6-10.7-12.65,0-7.9,4.55-12.7,10.7-12.7a9.3,9.3,0,0,1,7.45,3.7V55.5a3.2,3.2,0,0,1,6.4,0V83.15A3.16,3.16,0,0,1,427.1,86.3Zm-3.15-16.65a6.91,6.91,0,0,0-5.5-2.75c-3.6,0-6.1,2.85-6.1,7.05s2.5,7,6.1,7a6.9,6.9,0,0,0,5.5-2.75Z"/><path class="cls-3" d="M454.4,86.3h-.5a2.78,2.78,0,0,1-2.75-2.8,10,10,0,0,1-7.65,3.1c-3.85,0-8.4-2.6-8.4-8,0-5.65,4.55-7.8,8.4-7.8,3.2,0,6,1.05,7.65,3V70.5c0-2.45-2.1-4-5.3-4a9.55,9.55,0,0,0-5.4,1.55,2.37,2.37,0,0,1-1.15.35,2.44,2.44,0,0,1-2.4-2.45,2.61,2.61,0,0,1,.35-1.25c1.5-2.4,6.9-3.4,9.7-3.4,5.5,0,10.55,2.2,10.55,9.15V83.15A3.13,3.13,0,0,1,454.4,86.3Zm-3.25-9.1a6.35,6.35,0,0,0-5.1-2.1c-2.5,0-4.55,1.3-4.55,3.65s2,3.55,4.55,3.55a6.35,6.35,0,0,0,5.1-2.1Z"/><path class="cls-3" d="M485,65.8,475.25,90c-1.7,4.2-4.75,5.85-8.3,5.85-2.2,0-3.9-1.1-3.9-2.85a2.85,2.85,0,0,1,3-2.8,4.32,4.32,0,0,0,.8,0,3.07,3.07,0,0,0,2.4-1.7l.9-2.05-8.25-20.6a2.61,2.61,0,0,1-.2-1.05,3.17,3.17,0,0,1,6.15-1l5.6,15,5.6-15a3.26,3.26,0,0,1,3-2.1,3.08,3.08,0,0,1,3.1,3.1A2.93,2.93,0,0,1,485,65.8Z"/><path class="cls-3" d="M31.5,62.2H27.85L25.1,70.5h2.5a2,2,0,0,1,0,4.05H23.75l-2.4,7.25a2.21,2.21,0,0,1-2.15,1.5A2.13,2.13,0,0,1,17,81.15a1.82,1.82,0,0,1,.1-.7l2.05-5.9H14.35l-2.45,7.3a2.27,2.27,0,0,1-2.15,1.5,2.14,2.14,0,0,1-2.2-2.15,1.7,1.7,0,0,1,.1-.7l2-6H7.5a2,2,0,0,1-2-2.1,2,2,0,0,1,2-2h3.55l2.7-8.3h-2.3a2,2,0,0,1-2-2.05,2,2,0,0,1,2-2h3.7l2.4-7.35a2.23,2.23,0,0,1,2.1-1.45,2.19,2.19,0,0,1,2.25,2.15,2.55,2.55,0,0,1-.1.65l-2,6h4.7L27,50.9a2.27,2.27,0,0,1,2.15-1.5,2.16,2.16,0,0,1,2.25,2.15,2.94,2.94,0,0,1-.1.7l-2,6h2.3a2,2,0,0,1,2,2.05A2,2,0,0,1,31.5,62.2Zm-13.05,0-2.7,8.3H20.4l2.75-8.3Z"/></svg>