<?xml version="1.0" encoding="utf-8"?>
<!-- Generator: Adobe Illustrator 21.0.2, SVG Export Plug-In . SVG Version: 6.00 Build 0)  -->
<svg version="1.1" id="Layer_1" xmlns="http://www.w3.org/2000/svg" xmlns:xlink="http://www.w3.org/1999/xlink" x="0px" y="0px"
	 viewBox="0 0 490 160" style="enable-background:new 0 0 490 160;" xml:space="preserve">
<style type="text/css">
	.st0{opacity:0.2;fill:none;stroke:#FF5200;stroke-width:8;stroke-linecap:round;stroke-miterlimit:10;}
	.st1{fill:#FF6900;}
	.st2{fill:#6C635E;}
</style>
<g>
	<path class="st0" d="M402.4,34.1C397.2,19.5,383.3,9,366.9,9H264.1c-20.8,0-37.6,16.8-37.6,37.6v37.6c0,20.8,16.8,37.6,37.6,37.6
		V147c0,0,8.7-6.5,18.8-12.9c3.3-2.1,6.7-4.1,10-5.9"/>
	<g>
		<path class="st1" d="M274.8,71.6c-0.4,0-1-0.1-1.7-0.2s-1.4-0.2-2.2-0.3s-1.5-0.2-2.2-0.3c-0.7-0.1-1.2-0.2-1.5-0.2
			c-1.2,0-2.2,0.1-3.2,0.4c-0.8,2.9-1.5,6.4-2,10.7c-0.6,4.3-0.9,9.3-1,15c-1.2,0.4-2.2,0.5-2.9,0.5c-0.7,0-1.3-0.1-2-0.2
			c-0.7-0.1-1.3-0.5-1.9-0.9c-0.6-0.5-1.1-1.1-1.5-1.9c-0.4-0.8-0.6-1.9-0.6-3.2c0-0.6,0.1-1.3,0.2-2.3c0.1-0.9,0.2-1.6,0.2-1.9
			c0-0.8,0.1-2.2,0.3-4.2c0.2-2,0.5-4.4,0.8-7.1c0.3-2.7,0.6-5.7,1-8.9c0.4-3.2,0.8-6.4,1-9.5c0.3-3.2,0.6-6.1,0.8-8.9
			c0.2-2.8,0.3-5.1,0.3-7v-1.3c0-0.9,0.4-1.4,1.2-1.5c0.8-0.1,1.4-0.2,1.8-0.2l3.3,0.9c0.7,0.2,1.2,0.6,1.6,1.2
			c0.4,0.6,0.7,1.2,0.9,2c0.2,0.8,0.4,1.6,0.4,2.5c0.1,0.9,0.1,1.7,0.1,2.5c0,0.6-0.1,1.5-0.2,2.6c-0.1,1.2-0.3,2.4-0.4,3.8
			c-0.1,1.4-0.3,2.7-0.4,4.1c-0.1,1.4-0.2,2.5-0.2,3.5c0,1.3,0.5,2.1,1.5,2.5s2.5,0.5,4.5,0.5h1.3c1,0,1.8,0,2.4-0.1
			c0.7-0.1,1.1-0.1,1.4-0.1h0.4c1-4,1.8-8.4,2.6-13.3c0.8-4.9,1.5-10.4,2.3-16.7c0.4-2.5,1.1-3.8,2.3-3.9h1c1.4,0,2.5,0.2,3.5,0.6
			c0.9,0.4,1.5,1,1.7,1.8c-0.1,1.8-0.3,4.2-0.6,7.3c-0.3,3.1-0.7,6.6-1.2,10.4c-0.4,3.9-0.9,7.9-1.4,12.2c-0.5,4.3-0.9,8.4-1.4,12.4
			c-0.4,4-0.8,7.7-1,11.2c-0.3,3.4-0.4,6.3-0.4,8.5c0,1.2,0,2.3,0.1,3.4c0,1.1,0.1,2.1,0.2,3.1c0,0.5-0.2,1-0.5,1.5
			c-0.3,0.5-0.8,0.7-1.3,0.7c-2.9,0-5-0.8-6.1-2.5c-1.1-1.6-1.7-4.1-1.7-7.2c0-0.4,0-1,0.1-1.8c0-0.7,0.1-1.5,0.1-2.4
			c0-0.8,0.1-1.6,0.1-2.4c0-0.7,0.1-1.3,0.1-1.8c0-0.6,0.1-1.5,0.2-2.8c0.1-1.2,0.2-2.6,0.4-4c0.1-1.4,0.3-2.7,0.4-4
			c0.1-1.3,0.2-2.3,0.2-2.9H274.8z"/>
		<path class="st1" d="M296.2,75.7c0-2.7,0.3-5.4,1-8.2c0.7-2.8,1.7-5.2,3.1-7.4c1.4-2.2,3.1-4,5.2-5.3c2.1-1.4,4.4-2,7.2-2
			c1.9,0,3.6,0.3,5,0.9c1.4,0.6,2.6,1.4,3.6,2.3c1,1,1.7,2,2.1,3.2c0.5,1.2,0.7,2.5,0.7,3.8c0,1.7-0.3,3.3-0.9,4.9
			c-0.6,1.6-1.5,3-2.7,4.2c-1.2,1.2-2.6,2.3-4.3,3c-1.7,0.8-3.7,1.2-5.9,1.3c-1,0.1-1.8,0-2.5-0.1c-0.7-0.1-1.6-0.4-2.5-0.7
			c-0.1,0.4-0.1,0.7-0.1,0.9c0,0.3,0,0.5,0,0.6c0.1,2.7,0.5,4.8,1.3,6.4c0.8,1.5,1.7,2.7,2.6,3.5c1,0.8,1.9,1.3,2.8,1.5
			c0.9,0.2,1.5,0.3,1.8,0.3c2.3,0,4.2-0.5,5.7-1.5c1.5-1,3.2-2.2,5-3.4c0.4,0.1,0.8,0.3,1.2,0.5c0.4,0.2,0.8,0.5,1.2,1
			c0.1,0.4,0.1,0.8,0.2,1c0.1,0.3,0.1,0.6,0.1,1.2c-0.1,1-0.3,1.9-0.8,2.6c-0.5,0.7-1,1.3-1.6,1.8c-1.9,1.6-3.7,2.7-5.3,3.1
			c-1.7,0.5-3.8,0.7-6.4,0.7c-1.2,0-2.6-0.3-4.3-0.8c-1.7-0.5-3.2-1.1-4.3-1.6c-1.8-1.3-3.1-2.6-4.1-4c-1-1.3-1.8-2.7-2.3-4.2
			c-0.6-1.5-0.9-3-1.1-4.6C296.4,79.2,296.3,77.5,296.2,75.7z M305.8,69.8c0.3,0.1,0.8,0.1,1.4,0.2c0.6,0,1.1,0.1,1.5,0.1
			c2.5,0,4.4-0.6,5.8-1.9c1.4-1.2,2-2.8,2-4.5c0-1-0.3-2-0.9-2.9c-0.6-0.9-1.4-1.3-2.4-1.3c-0.7,0-1.4,0.1-2.1,0.2
			c-0.7,0.1-1.2,0.5-1.6,1.1c-0.3,0.4-0.6,0.7-1,1.1c-0.4,0.4-0.7,0.9-1,1.5s-0.6,1.5-0.9,2.5C306.2,66.9,305.9,68.2,305.8,69.8z"/>
		<path class="st1" d="M345.7,92.8c0,0.1,0,0.3,0.1,0.4c0.1,0.1,0.1,0.3,0.1,0.4c0,1.2-0.5,2-1.5,2.6s-2,0.8-3,0.8
			c-1.8,0-3.3-1-4.4-3c-1.1-2-1.9-4.4-2.5-7c-0.6-2.7-1-5.3-1.2-8c-0.2-2.6-0.3-4.6-0.3-5.9c0-3.6,0-6.8-0.1-9.6
			c0-2.8-0.1-5.8-0.1-8.9c0-4,0.2-8,0.6-11.8c0.4-3.9,0.6-7.9,0.6-12c0-1,0.2-1.7,0.7-2.3c0.4-0.6,1-1.2,1.8-1.8
			c0.6,0,1.3,0,2.1,0.1c0.8,0.1,1.6,0.3,2.4,0.5c0.7,0.3,1.4,0.7,1.9,1.2c0.5,0.5,0.8,1.2,0.8,2.2c0,1.9-0.2,3.8-0.6,5.8
			c-0.4,1.9-0.5,3.9-0.5,5.8c0,2.8,0,5.3-0.1,7.5c0,2.2-0.1,4.5-0.1,6.7c0,1.9,0,3.7,0.1,5.4c0.1,1.7,0.1,3.5,0.1,5.2
			c0,1.2,0,2.4,0.1,3.6c0,1.1,0.1,2.2,0.1,3.2c0,2.9,0.3,6,0.9,9.6C344.4,87.1,345.1,90.2,345.7,92.8z"/>
		<path class="st1" d="M365.6,111c0,2.1,0.1,4.1,0.4,5.9c0.3,1.8,0.4,3.5,0.4,5c0,0.7-0.1,1.5-0.3,2.4c-0.2,1-0.5,1.9-0.9,2.8
			s-1,1.6-1.8,2.2c-0.7,0.6-1.7,0.9-2.9,0.9c-1.1,0-2.2-0.5-3.2-1.4c-1.1-0.9-1.6-2-1.6-3.1c0-0.4,0-0.8,0.1-1.3
			c0-0.5,0.1-1,0.2-1.5c-0.1-1.2-0.1-2.5-0.1-3.7s0-2.5,0-3.7c0-3.8,0-7.6,0.1-11.5c0.1-3.8,0.1-7.9,0.1-12c0-3.1,0-6.2-0.1-9.3
			c-0.1-3.1-0.1-6.5-0.1-10.3c0-3.1-0.1-6.1-0.4-9c-0.3-2.9-0.4-5.9-0.4-9c0-1.3,0.3-2.3,0.8-3c0.5-0.7,1.8-1,3.7-1
			c2.1,0,3.4,0.5,4.1,1.4c0.7,1,1.3,2.1,1.7,3.5c0.6-0.2,1.3-0.5,2.1-0.8c0.8-0.3,1.6-0.4,2.1-0.4h0.8c2,0,3.5,0.2,4.5,0.5
			c1,0.3,2.1,0.8,3.1,1.4l0.3,0.2c0.1,0,0.1,0,0.2,0.1c0,0,0.1,0.1,0.2,0.1c1.4,0.7,2.7,1.8,3.9,3.1c1.2,1.3,2.3,2.8,3.1,4.4
			c0.9,1.6,1.6,3.3,2.1,5.1c0.5,1.8,0.8,3.4,0.8,5.1c0,2-0.4,4.1-1.3,6.4c-0.8,2.3-2.1,4.4-3.8,6.3c-1.7,1.9-3.8,3.5-6.4,4.7
			c-2.6,1.2-5.7,1.9-9.2,1.9c-0.3,0-0.6,0-1,0c-0.4,0-0.7-0.1-1.1-0.2c-0.1,0.3-0.2,0.7-0.2,1.3c0,0.5,0,1.8,0,3.7V111z M375,82.8
			c2.4-2.5,3.6-5.5,3.6-9.1c0-1.3-0.2-2.6-0.6-3.9c-0.4-1.3-1-2.5-1.8-3.6c-0.8-1.1-1.7-2-2.8-2.8c-1.1-0.7-2.3-1.2-3.7-1.4
			l-1.4,0.5c-0.4,0.1-1,0.4-1.6,0.8c-0.6,0.4-1,0.7-1.2,0.8c-0.1,0.1-0.1,0.1-0.2,0.2c0,0.1-0.1,0.1-0.3,0.2
			c-0.1,0.1-0.2,0.8-0.2,2.1c0,1.4,0.1,3,0.2,4.9c0.1,1.9,0.2,3.2,0.2,3.9v3.7c0,1.6,0.1,3.1,0.2,4.4c0.1,1.3,0.5,2,1.1,2
			c1.1,0,2.1-0.1,3-0.3c0.9-0.2,2-0.6,3.1-1.2L375,82.8z"/>
	</g>
	<g>
		<path class="st2" d="M45.2,83.3c-1.8,0-3.2-1.4-3.2-3.2V68.3c0-3.3-1.8-4.4-4.5-4.4c-2.5,0-4.4,1.4-5.5,2.9v13.4
			c0,1.8-1.4,3.2-3.2,3.2c-1.8,0-3.1-1.4-3.1-3.2V52.4c0-1.7,1.4-3.1,3.2-3.1c1.7,0,3.1,1.4,3.1,3.1V62c1.6-1.9,4.6-3.8,8.5-3.8
			c5.3,0,7.9,2.9,7.9,7.6v14.3C48.4,81.9,47,83.3,45.2,83.3z"/>
		<path class="st2" d="M72.4,83.3h-0.5c-0.5,0-2.8-0.4-2.8-2.8c-1.6,2-4.5,3.1-7.7,3.1c-3.9,0-8.4-2.6-8.4-8c0-5.7,4.6-7.8,8.4-7.8
			c3.2,0,6.1,1.1,7.7,3v-3.2c0-2.5-2.1-4-5.3-4c-1.9,0-3.8,0.4-5.4,1.5c-0.3,0.2-0.8,0.3-1.1,0.3c-1.1,0-2.4-1-2.4-2.5
			c0-0.4,0.1-0.9,0.3-1.2c1.5-2.4,6.9-3.4,9.7-3.4c5.5,0,10.6,2.2,10.6,9.2v12.8C75.5,81.9,74.1,83.3,72.4,83.3z M69.2,74.2
			c-1-1.4-3-2.1-5.1-2.1c-2.5,0-4.6,1.3-4.6,3.7c0,2.2,2.1,3.5,4.6,3.5c2.1,0,4.1-0.7,5.1-2.1V74.2z"/>
		<path class="st2" d="M95.6,83.6c-2.9,0-5.5-1.2-7.5-3.7v9.5c0,1.7-1.4,3.1-3.2,3.1c-1.8,0-3.1-1.4-3.1-3.1V61.6
			c0-1.7,1.4-3.1,3.2-3.1c1.7,0,3.1,1.4,3.1,3.1v0.2c1.9-2.3,4.5-3.7,7.5-3.7c6.2,0,10.7,4.6,10.7,12.7S101.8,83.6,95.6,83.6z
			 M93.6,63.9c-2,0-4.4,1.2-5.5,2.8v8.5c1.1,1.5,3.4,2.8,5.5,2.8c3.7,0,6.1-2.8,6.1-7C99.7,66.7,97.3,63.9,93.6,63.9z"/>
		<path class="st2" d="M124.8,83.6c-2.9,0-5.5-1.2-7.5-3.7v9.5c0,1.7-1.4,3.1-3.2,3.1c-1.8,0-3.1-1.4-3.1-3.1V61.6
			c0-1.7,1.4-3.1,3.2-3.1c1.7,0,3.1,1.4,3.1,3.1v0.2c1.9-2.3,4.5-3.7,7.5-3.7c6.2,0,10.7,4.6,10.7,12.7S131,83.6,124.8,83.6z
			 M122.7,63.9c-2,0-4.4,1.2-5.5,2.8v8.5c1.1,1.5,3.4,2.8,5.5,2.8c3.7,0,6.1-2.8,6.1-7C128.9,66.7,126.4,63.9,122.7,63.9z"/>
		<path class="st2" d="M161.3,62.8L151.5,87c-1.7,4.2-4.8,5.9-8.3,5.9c-2.2,0-3.9-1.1-3.9-2.9c0-1.5,1.2-2.8,3-2.8
			c0.2,0,0.5,0,0.8,0c1.1-0.2,2-0.7,2.4-1.7l0.9-2.1l-8.3-20.6c-0.1-0.4-0.2-0.7-0.2-1.1c0-1.5,1.2-3.1,3.2-3.1c1.2,0,2.4,0.8,3,2.1
			l5.6,15l5.6-15c0.5-1.2,1.7-2.1,3.1-2.1c1.9,0,3.1,1.5,3.1,3.1C161.5,62,161.5,62.4,161.3,62.8z"/>
	</g>
	<g>
		<path class="st2" d="M181.4,83.6c-3.6,0-5.4-2-5.4-5.7V62.1h-2.7c-0.9,0-1.6-0.7-1.6-1.7c0-0.9,0.7-1.6,1.6-1.6h2.7v-5.1
			c0-1,0.8-1.8,1.9-1.8c1,0,1.8,0.8,1.8,1.8v5.1h3.6c0.9,0,1.6,0.7,1.6,1.7c0,0.9-0.7,1.6-1.6,1.6h-3.6v15c0,1.8,0.8,3.1,2.5,3.1
			c0.6,0,1.4-0.4,2-0.4c0.9,0,1.6,0.7,1.6,1.6C185.8,83,183.5,83.6,181.4,83.6z"/>
		<path class="st2" d="M200.5,83.6c-7.4,0-12-5.7-12-12.7c0-7,4.6-12.7,12-12.7s12,5.7,12,12.7C212.5,77.9,207.9,83.6,200.5,83.6z
			 M200.5,61.6c-5.2,0-8.1,4.4-8.1,9.3c0,5,2.9,9.4,8.1,9.4s8-4.4,8-9.4C208.5,66,205.7,61.6,200.5,61.6z"/>
	</g>
	<g>
		<path class="st2" d="M408.2,83.5c-1.5,0-2.8-1.2-2.8-2.8s1.2-2.8,2.8-2.8s2.8,1.2,2.8,2.8S409.8,83.5,408.2,83.5z"/>
		<path class="st2" d="M422.2,52.9c0,1.4-1.2,2.5-2.5,2.5c-1.4,0-2.5-1.1-2.5-2.5c0-1.4,1.2-2.6,2.5-2.6
			C421,50.3,422.2,51.5,422.2,52.9z M419.6,83.3c-1,0-1.9-0.8-1.9-1.8V60.3c0-1,0.8-1.8,2-1.8c1,0,1.8,0.8,1.8,1.8v21.1
			C421.5,82.5,420.7,83.3,419.6,83.3z"/>
		<path class="st2" d="M439.6,83.6c-7.4,0-12-5.7-12-12.7c0-7,4.6-12.7,12-12.7c7.3,0,12,5.7,12,12.7
			C451.5,77.9,446.9,83.6,439.6,83.6z M439.6,61.6c-5.2,0-8.1,4.4-8.1,9.3c0,5,2.9,9.4,8.1,9.4s8-4.4,8-9.4
			C447.6,66,444.7,61.6,439.6,61.6z"/>
	</g>
</g>
</svg>
